<?xml version="1.0" encoding="UTF-8"?>
<svg version="1.1" xmlns="http://www.w3.org/2000/svg" width="108" height="122">
<path d="M0 0 C35.64 0 71.28 0 108 0 C108 40.26 108 80.52 108 122 C72.36 122 36.72 122 0 122 C0 81.74 0 41.48 0 0 Z " fill="#111D24" transform="translate(0,0)"/>
<path d="M0 0 C24.09 0 48.18 0 73 0 C73 29.37 73 58.74 73 89 C48.91 89 24.82 89 0 89 C0 59.63 0 30.26 0 0 Z " fill="#142026" transform="translate(18,17)"/>
<path d="M0 0 C35.64 0 71.28 0 108 0 C108 40.26 108 80.52 108 122 C72.36 122 36.72 122 0 122 C0 81.74 0 41.48 0 0 Z M7 3 C7 40.62 7 78.24 7 117 C38.02 117 69.04 117 101 117 C101 79.38 101 41.76 101 3 C69.98 3 38.96 3 7 3 Z " fill="#0C282D" transform="translate(0,0)"/>
<path d="M0 0 C24.09 0 48.18 0 73 0 C73 29.37 73 58.74 73 89 C48.91 89 24.82 89 0 89 C0 59.63 0 30.26 0 0 Z M5 4 C5 30.4 5 56.8 5 84 C25.79 84 46.58 84 68 84 C68 57.6 68 31.2 68 4 C47.21 4 26.42 4 5 4 Z " fill="#63AFB2" transform="translate(18,17)"/>
<path d="M0 0 C5.61 0 11.22 0 17 0 C17 17.82 17 35.64 17 54 C11.39 54 5.78 54 0 54 C0 36.18 0 18.36 0 0 Z " fill="#F0F1F1" transform="translate(58,34)"/>
<path d="M0 0 C5.61 0 11.22 0 17 0 C17 12.54 17 25.08 17 38 C11.39 38 5.78 38 0 38 C0 25.46 0 12.92 0 0 Z " fill="#F0F1F1" transform="translate(34,50)"/>
<path d="M0 0 C2.64 0 5.28 0 8 0 C8 3.3 8 6.6 8 10 C5.36 10 2.72 10 0 10 C0 6.7 0 3.4 0 0 Z " fill="#3E484E" transform="translate(63,72)"/>
<path d="M0 0 C2.64 0 5.28 0 8 0 C8 3.3 8 6.6 8 10 C5.36 10 2.72 10 0 10 C0 6.7 0 3.4 0 0 Z " fill="#3E484E" transform="translate(38,72)"/>
<path d="M0 0 C2.64 0 5.28 0 8 0 C8 2.97 8 5.94 8 9 C5.36 9 2.72 9 0 9 C0 6.03 0 3.06 0 0 Z " fill="#2E393F" transform="translate(63,41)"/>
<path d="M0 0 C1.98 0 3.96 0 6 0 C6 2.97 6 5.94 6 9 C4.02 9 2.04 9 0 9 C0 6.03 0 3.06 0 0 Z " fill="#172229" transform="translate(64,57)"/>
<path d="M0 0 C1.98 0 3.96 0 6 0 C6 2.97 6 5.94 6 9 C4.02 9 2.04 9 0 9 C0 6.03 0 3.06 0 0 Z " fill="#172229" transform="translate(39,57)"/>
</svg>
